<svg width="100" height="40" viewBox="0 0 100 40" fill="none" xmlns="http://www.w3.org/2000/svg">
<path fill-rule="evenodd" clip-rule="evenodd" d="M13.9233 6.87007C14.6218 7.56857 15.7543 7.56857 16.4528 6.87007L17.5412 5.78165C18.8408 4.48204 20.9479 4.48204 22.2475 5.78165L23.6886 7.2227C23.9839 7.51805 24.1316 7.66573 24.2453 7.80104C25.5211 9.31921 25.5211 11.5347 24.2453 13.0528C24.1316 13.1881 23.9839 13.3358 23.6886 13.6312L21.7796 15.5401C21.0643 16.2555 21.0643 17.4153 21.7796 18.1306L22.2543 18.6053C22.7075 19.0585 23.4423 19.0585 23.8954 18.6053C24.3487 18.1521 25.0835 18.1518 25.5371 18.6047L27.0691 20.1346L28.0959 21.1628C28.8283 21.8963 30.0167 21.8967 30.7497 21.1638C31.481 20.4325 31.481 19.2467 30.7497 18.5154L29.7207 17.4864C28.4218 16.1875 28.4193 14.08 29.7173 12.7801C31.0154 11.4801 31.0149 9.37423 29.7163 8.07481L23.6028 1.95794C22.8954 1.25009 22.5416 0.896164 22.1863 0.664149C20.8306 -0.221156 19.0798 -0.221401 17.7239 0.663525C17.3685 0.89544 17.0147 1.24927 16.307 1.95692L13.9233 4.3406C13.2248 5.03909 13.2248 6.17158 13.9233 6.87007ZM10.1902 22.4233C11.4898 23.7229 11.4898 25.83 10.1902 27.1296C8.89055 28.4292 8.89056 30.5363 10.1902 31.8359L16.307 37.9528C17.0154 38.6612 17.3697 39.0154 17.7255 39.2475C19.0807 40.1315 20.8301 40.1315 22.1854 39.2475C22.5412 39.0154 22.8954 38.6612 23.6038 37.9528L25.9875 35.5691C26.686 34.8706 26.686 33.7381 25.9875 33.0396C25.2554 32.3075 24.0682 32.3079 23.3366 33.0406L22.2797 34.0991C20.9982 35.3826 18.9186 35.3834 17.6362 34.1009L16.1341 32.5988C15.8639 32.3287 15.7289 32.1936 15.6239 32.0706C14.3222 30.5445 14.3222 28.2989 15.6239 26.7728C15.7289 26.6499 15.8639 26.5148 16.1341 26.2446L18.0177 24.361C18.7318 23.6469 18.731 22.4888 18.016 21.7756L17.544 21.3049C17.0888 20.851 16.3522 20.8507 15.8967 21.3043C15.4414 21.7578 14.7049 21.757 14.2505 21.3026L11.6075 18.6596C10.8921 17.9442 9.73233 17.9442 9.01698 18.6596C8.30163 19.3749 8.30163 20.5347 9.01698 21.2501L10.1902 22.4233Z" fill="white"/>
<path fill-rule="evenodd" clip-rule="evenodd" d="M1.95775 23.6026L4.34143 25.9862C5.03992 26.6847 6.1724 26.6847 6.87087 25.9862C7.59933 25.2577 7.59933 24.0767 6.87087 23.3482L5.8367 22.3141C4.53709 21.0144 4.53709 18.9074 5.8367 17.6077L7.22351 16.2209C7.51885 15.9256 7.66653 15.7779 7.80184 15.6642C9.32001 14.3885 11.5355 14.3885 13.0536 15.6642C13.1889 15.7779 13.3366 15.9256 13.632 16.2209L15.5409 18.1299C16.2563 18.8453 17.4161 18.8453 18.1314 18.1299L18.5756 17.6857C19.0457 17.2157 19.0457 16.4536 18.5756 15.9836C18.1056 15.5136 18.1056 14.7515 18.5756 14.2815L21.1627 11.6943C21.8631 10.994 21.8631 9.85846 21.1627 9.15809C20.4624 8.45772 19.3268 8.45772 18.6265 9.15809L17.5415 10.2431C16.2418 11.5427 14.1348 11.5427 12.8351 10.2431L12.808 10.216C11.4934 8.9014 9.36204 8.9014 8.04745 10.216L1.95774 16.3057C1.2493 17.0141 0.89508 17.3684 0.662974 17.7242C-0.220991 19.0794 -0.220991 20.8288 0.662974 22.184C0.89508 22.5399 1.2493 22.8941 1.95775 23.6026ZM21.3085 23.8975C21.7636 24.3526 21.7636 25.0904 21.3085 25.5454L18.7485 28.1054C18.0182 28.8357 18.0182 30.0198 18.7485 30.7502C19.4789 31.4805 20.663 31.4805 21.3933 30.7502L22.4851 29.6583C23.7847 28.3587 25.8918 28.3587 27.1914 29.6583C28.491 30.958 30.5981 30.958 31.8977 29.6583L37.9536 23.6025C38.662 22.8941 39.0162 22.5399 39.2483 22.1841C40.1323 20.8288 40.1323 19.0794 39.2483 17.7242C39.0162 17.3684 38.662 17.0141 37.9536 16.3057L35.6004 13.9526C34.8851 13.2372 33.7252 13.2372 33.0099 13.9526C32.2945 14.6679 32.2945 15.8277 33.0099 16.5431L34.0678 17.601C35.3674 18.9006 35.3674 21.0077 34.0678 22.3073L32.6878 23.6873C32.3924 23.9826 32.2447 24.1303 32.1094 24.244C30.5913 25.5198 28.3758 25.5198 26.8577 24.244C26.7223 24.1303 26.5747 23.9826 26.2793 23.6873L24.3703 21.7783C23.655 21.063 22.4952 21.063 21.7798 21.7783L21.3085 22.2496C20.8535 22.7047 20.8535 23.4425 21.3085 23.8975Z" fill="white"/>
<line x1="44.334" x2="44.334" y2="39.9113" stroke="white" stroke-width="0.0665187"/>
<path d="M58.3363 15.8335C56.6043 15.8335 55.1032 15.5376 53.833 14.9456C52.5821 14.3345 51.6199 13.4752 50.9463 12.3677C50.2727 11.2601 49.9359 9.95209 49.9359 8.44353C49.9359 6.99227 50.2535 5.72241 50.8886 4.63396C51.5429 3.52641 52.4281 2.66711 53.5443 2.05605C54.6798 1.42589 55.9692 1.11082 57.4125 1.11082C58.471 1.11082 59.4333 1.28268 60.2993 1.6264C61.1653 1.95102 61.9062 2.43796 62.522 3.08721C63.1379 3.71737 63.5998 4.48119 63.9077 5.37869C64.2348 6.27618 64.3984 7.2787 64.3984 8.38625C64.3984 8.76816 64.2926 9.05459 64.0809 9.24555C63.8692 9.41741 63.5324 9.50334 63.0705 9.50334H54.2372V7.09729H60.6457L60.1838 7.46966C60.1838 6.76312 60.0876 6.19025 59.8951 5.75105C59.7027 5.31185 59.414 4.97768 59.0291 4.74853C58.6635 4.51938 58.2016 4.40481 57.6435 4.40481C57.0469 4.40481 56.5273 4.54803 56.0847 4.83446C55.6613 5.1018 55.3341 5.50281 55.1032 6.03749C54.8722 6.57216 54.7568 7.24051 54.7568 8.04253V8.30032C54.7568 9.65611 55.0551 10.63 55.6516 11.2219C56.2675 11.7948 57.2105 12.0813 58.4806 12.0813C58.904 12.0813 59.3851 12.0335 59.924 11.938C60.4821 11.8235 61.0113 11.6707 61.5117 11.4797C62.0121 11.2888 62.4451 11.2601 62.8107 11.3938C63.1764 11.5084 63.4554 11.7184 63.6479 12.024C63.8596 12.3104 63.975 12.6446 63.9943 13.0265C64.0135 13.3893 63.9269 13.7521 63.7345 14.1149C63.542 14.4587 63.2245 14.726 62.7819 14.917C62.1083 15.2225 61.3866 15.4516 60.6168 15.6044C59.8663 15.7572 59.1061 15.8335 58.3363 15.8335Z" fill="white"/>
<path d="M69.2391 15.7763C68.3923 15.7763 67.738 15.5567 67.2761 15.1175C66.8335 14.6783 66.6122 14.0386 66.6122 13.1983V3.71737C66.6122 2.89626 66.8239 2.2661 67.2472 1.8269C67.6899 1.3877 68.3153 1.1681 69.1236 1.1681C69.9319 1.1681 70.5477 1.3877 70.9711 1.8269C71.3945 2.2661 71.6062 2.89626 71.6062 3.71737V4.89175H71.3175C71.51 3.74601 72.0007 2.83897 72.7898 2.17062C73.598 1.50228 74.5988 1.14901 75.7919 1.11082C76.35 1.09172 76.7638 1.23494 77.0332 1.54047C77.3219 1.8269 77.4759 2.37113 77.4951 3.17314C77.4951 3.86059 77.3508 4.40481 77.0621 4.80582C76.7734 5.20683 76.225 5.44552 75.4167 5.5219L74.7527 5.57919C73.7328 5.67467 72.9918 5.9611 72.5299 6.43849C72.0681 6.89679 71.8371 7.58423 71.8371 8.50082V13.1983C71.8371 14.0386 71.6158 14.6783 71.1732 15.1175C70.7306 15.5567 70.0859 15.7763 69.2391 15.7763Z" fill="white"/>
<path d="M83.9242 15.8335C82.8272 15.8335 81.8553 15.633 81.0086 15.232C80.181 14.831 79.5267 14.2868 79.0456 13.5994C78.5837 12.8928 78.3528 12.0908 78.3528 11.1933C78.3528 10.1621 78.6222 9.35058 79.1611 8.75861C79.6999 8.16665 80.5659 7.74654 81.7591 7.4983C82.9523 7.23096 84.54 7.09729 86.5222 7.09729H88.1099V9.50334H86.5222C85.7717 9.50334 85.1462 9.56063 84.6458 9.6752C84.1647 9.77068 83.8087 9.93299 83.5778 10.1621C83.3468 10.3722 83.2313 10.6491 83.2313 10.9928C83.2313 11.432 83.3853 11.7948 83.6932 12.0813C84.0204 12.3677 84.4823 12.5109 85.0788 12.5109C85.56 12.5109 85.9834 12.4059 86.349 12.1958C86.7339 11.9858 87.0418 11.6993 87.2728 11.3365C87.5037 10.9546 87.6192 10.5154 87.6192 10.0189V6.69628C87.6192 6.00884 87.4363 5.5219 87.0707 5.23547C86.7243 4.94904 86.1181 4.80582 85.252 4.80582C84.7902 4.80582 84.2706 4.86311 83.6932 4.97768C83.1159 5.07316 82.4712 5.25457 81.7591 5.5219C81.2395 5.71286 80.7969 5.7415 80.4312 5.60783C80.0656 5.47417 79.7769 5.24502 79.5652 4.92039C79.3728 4.59577 79.2765 4.2425 79.2765 3.86059C79.2958 3.47867 79.4209 3.11586 79.6518 2.77213C79.902 2.42841 80.2773 2.16107 80.7776 1.97012C81.7014 1.6264 82.5482 1.39725 83.3179 1.28268C84.107 1.1681 84.8287 1.11082 85.483 1.11082C87.0611 1.11082 88.3601 1.33996 89.3801 1.79826C90.4193 2.23746 91.1891 2.9249 91.6894 3.86059C92.209 4.77718 92.4689 5.9611 92.4689 7.41237V13.1983C92.4689 14.0386 92.2668 14.6783 91.8626 15.1175C91.4585 15.5567 90.8715 15.7763 90.1017 15.7763C89.3127 15.7763 88.7065 15.5567 88.2831 15.1175C87.879 14.6783 87.6769 14.0386 87.6769 13.1983V12.4536L87.8501 12.8546C87.7539 13.4657 87.5326 13.9908 87.1862 14.43C86.8397 14.8692 86.3875 15.2129 85.8294 15.4612C85.2713 15.7094 84.6362 15.8335 83.9242 15.8335Z" fill="white"/>
<path d="M58.0476 38.8031C56.6043 38.8031 55.4111 38.5835 54.4681 38.1443C53.5443 37.7051 52.8515 37.0463 52.3897 36.1679C51.9278 35.2704 51.6968 34.1533 51.6968 32.8166V28.1478H50.7154C50.0995 28.1478 49.6184 27.9854 49.272 27.6608C48.9448 27.3362 48.7812 26.8683 48.7812 26.2573C48.7812 25.6462 48.9448 25.1879 49.272 24.8824C49.6184 24.5578 50.0995 24.3955 50.7154 24.3955H51.6968V22.6196C51.6968 21.7794 51.9182 21.1397 52.3608 20.7005C52.8034 20.2613 53.4385 20.0417 54.266 20.0417C55.0935 20.0417 55.7286 20.2613 56.1713 20.7005C56.6139 21.1397 56.8352 21.7794 56.8352 22.6196V24.3955H59.2023C59.8374 24.3955 60.3185 24.5578 60.6457 24.8824C60.9921 25.1879 61.1653 25.6462 61.1653 26.2573C61.1653 26.8683 60.9921 27.3362 60.6457 27.6608C60.3185 27.9854 59.8374 28.1478 59.2023 28.1478H56.8352V32.6448C56.8352 33.3513 56.9988 33.8764 57.3259 34.2202C57.6724 34.5448 58.2112 34.7071 58.9425 34.7071C59.2119 34.7071 59.4717 34.6785 59.7219 34.6212C59.9721 34.5639 60.203 34.5352 60.4147 34.5352C60.7227 34.5161 60.9728 34.6116 61.1653 34.8217C61.3577 35.0126 61.454 35.4614 61.454 36.1679C61.454 36.7408 61.3674 37.2277 61.1942 37.6287C61.021 38.0106 60.713 38.2875 60.2704 38.4594C60.001 38.5549 59.6353 38.6312 59.1734 38.6885C58.7116 38.7649 58.3363 38.8031 58.0476 38.8031Z" fill="white"/>
<path d="M70.4865 38.8031C68.7544 38.8031 67.2533 38.5071 65.9832 37.9152C64.7323 37.3041 63.77 36.4448 63.0965 35.3373C62.4229 34.2297 62.0861 32.9217 62.0861 31.4131C62.0861 29.9618 62.4036 28.692 63.0387 27.6035C63.693 26.496 64.5783 25.6367 65.6945 25.0256C66.83 24.3955 68.1194 24.0804 69.5627 24.0804C70.6212 24.0804 71.5834 24.2522 72.4494 24.596C73.3155 24.9206 74.0564 25.4075 74.6722 26.0568C75.288 26.6869 75.7499 27.4508 76.0578 28.3483C76.385 29.2457 76.5486 30.2483 76.5486 31.3558C76.5486 31.7377 76.4427 32.0242 76.231 32.2151C76.0194 32.387 75.6826 32.4729 75.2207 32.4729H66.3873V30.0669H72.7958L72.334 30.4392C72.334 29.7327 72.2377 29.1598 72.0453 28.7206C71.8528 28.2814 71.5642 27.9472 71.1793 27.7181C70.8136 27.489 70.3518 27.3744 69.7937 27.3744C69.1971 27.3744 68.6775 27.5176 68.2348 27.804C67.8114 28.0714 67.4843 28.4724 67.2533 29.0071C67.0224 29.5417 66.9069 30.2101 66.9069 31.0121V31.2699C66.9069 32.6257 67.2052 33.5996 67.8018 34.1915C68.4177 34.7644 69.3606 35.0508 70.6308 35.0508C71.0542 35.0508 71.5353 35.0031 72.0742 34.9076C72.6323 34.793 73.1615 34.6403 73.6619 34.4493C74.1622 34.2583 74.5952 34.2297 74.9609 34.3634C75.3265 34.478 75.6056 34.688 75.798 34.9935C76.0097 35.28 76.1252 35.6141 76.1444 35.9961C76.1637 36.3589 76.0771 36.7217 75.8846 37.0845C75.6922 37.4282 75.3747 37.6956 74.932 37.8865C74.2585 38.192 73.5368 38.4212 72.767 38.574C72.0164 38.7267 71.2563 38.8031 70.4865 38.8031Z" fill="white"/>
<path d="M81.3027 38.7458C80.4944 38.7458 79.8689 38.5262 79.4263 38.087C78.9837 37.6478 78.7623 37.0081 78.7623 36.1679V20.6145C78.7623 19.7743 78.9837 19.1346 79.4263 18.6954C79.8689 18.2562 80.4944 18.0366 81.3027 18.0366C82.1302 18.0366 82.7653 18.2562 83.2079 18.6954C83.6698 19.1346 83.9007 19.7743 83.9007 20.6145V30.0669H83.9584L87.4802 25.8276C87.9614 25.2548 88.404 24.8347 88.8081 24.5673C89.2315 24.2809 89.7992 24.1377 90.5113 24.1377C91.2234 24.1377 91.7718 24.3095 92.1567 24.6533C92.5416 24.997 92.7437 25.4266 92.7629 25.9422C92.7822 26.4578 92.5705 26.9734 92.1279 27.489L88.3174 31.9573V30.1814L92.5897 35.5091C93.0131 36.0438 93.1863 36.5689 93.1093 37.0845C93.0324 37.581 92.7822 37.982 92.3588 38.2875C91.9547 38.5931 91.435 38.7458 90.8 38.7458C90.0302 38.7458 89.4143 38.6122 88.9525 38.3448C88.4906 38.0584 88.0287 37.6192 87.5668 37.0272L83.9584 32.6161H83.9007V36.1679C83.9007 37.8865 83.0347 38.7458 81.3027 38.7458Z" fill="white"/>
<circle cx="97.3395" cy="36.142" r="2.66075" fill="white"/>
</svg>
